<mxfile host="app.diagrams.net" modified="2020-06-09T12:54:17.245Z" agent="5.0 (Windows NT 10.0; Win64; x64) AppleWebKit/537.36 (KHTML, like Gecko) Chrome/83.0.4103.97 Safari/537.36" etag="ZvC165xjMKo_AZoqakxE" version="13.1.14" type="github">
  <diagram id="prtHgNgQTEPvFCAcTncT" name="Page-1">
    <mxGraphModel dx="981" dy="526" grid="1" gridSize="10" guides="1" tooltips="1" connect="1" arrows="1" fold="1" page="1" pageScale="1" pageWidth="827" pageHeight="1169" math="0" shadow="0">
      <root>
        <mxCell id="0" />
        <mxCell id="1" parent="0" />
        <mxCell id="kHHgpGK56QLG5do9aqDO-1" value="Lambda" style="outlineConnect=0;dashed=0;verticalLabelPosition=bottom;verticalAlign=top;align=center;html=1;shape=mxgraph.aws3.lambda_function;fillColor=#F58534;gradientColor=none;fontStyle=1" vertex="1" parent="1">
          <mxGeometry x="310" y="140" width="69" height="72" as="geometry" />
        </mxCell>
        <mxCell id="kHHgpGK56QLG5do9aqDO-2" value="CloudWatch" style="outlineConnect=0;fontColor=#232F3E;gradientColor=#F34482;gradientDirection=north;fillColor=#BC1356;strokeColor=#ffffff;dashed=0;verticalLabelPosition=bottom;verticalAlign=top;align=center;html=1;fontSize=12;fontStyle=0;aspect=fixed;shape=mxgraph.aws4.resourceIcon;resIcon=mxgraph.aws4.cloudwatch;" vertex="1" parent="1">
          <mxGeometry x="120" y="82" width="78" height="78" as="geometry" />
        </mxCell>
        <mxCell id="kHHgpGK56QLG5do9aqDO-3" value="API Gateway" style="outlineConnect=0;fontColor=#232F3E;gradientColor=#945DF2;gradientDirection=north;fillColor=#5A30B5;strokeColor=#ffffff;dashed=0;verticalLabelPosition=bottom;verticalAlign=top;align=center;html=1;fontSize=12;fontStyle=0;aspect=fixed;shape=mxgraph.aws4.resourceIcon;resIcon=mxgraph.aws4.api_gateway;" vertex="1" parent="1">
          <mxGeometry x="120" y="200" width="78" height="78" as="geometry" />
        </mxCell>
        <mxCell id="kHHgpGK56QLG5do9aqDO-4" value="" style="endArrow=classic;html=1;entryX=0.145;entryY=0.145;entryDx=0;entryDy=0;entryPerimeter=0;" edge="1" parent="1" source="kHHgpGK56QLG5do9aqDO-2" target="kHHgpGK56QLG5do9aqDO-1">
          <mxGeometry width="50" height="50" relative="1" as="geometry">
            <mxPoint x="158" y="79" as="sourcePoint" />
            <mxPoint x="440" y="370" as="targetPoint" />
          </mxGeometry>
        </mxCell>
        <mxCell id="kHHgpGK56QLG5do9aqDO-9" value="Telegram" style="shape=image;html=1;verticalAlign=top;verticalLabelPosition=bottom;labelBackgroundColor=#ffffff;imageAspect=0;aspect=fixed;image=https://cdn3.iconfinder.com/data/icons/social-media-chamfered-corner/154/telegram-128.png" vertex="1" parent="1">
          <mxGeometry x="120" y="350" width="80" height="80" as="geometry" />
        </mxCell>
        <mxCell id="kHHgpGK56QLG5do9aqDO-10" value="" style="endArrow=classic;startArrow=classic;html=1;exitX=0.5;exitY=0;exitDx=0;exitDy=0;" edge="1" parent="1" source="kHHgpGK56QLG5do9aqDO-9" target="kHHgpGK56QLG5do9aqDO-3">
          <mxGeometry width="50" height="50" relative="1" as="geometry">
            <mxPoint x="500" y="390" as="sourcePoint" />
            <mxPoint x="40" y="279" as="targetPoint" />
            <Array as="points">
              <mxPoint x="100" y="279" />
            </Array>
          </mxGeometry>
        </mxCell>
        <mxCell id="kHHgpGK56QLG5do9aqDO-11" value="AWS S3" style="dashed=0;outlineConnect=0;html=1;align=center;labelPosition=center;verticalLabelPosition=bottom;verticalAlign=top;shape=mxgraph.weblogos.aws_s3" vertex="1" parent="1">
          <mxGeometry x="480" y="147.20000000000002" width="61.6" height="57.6" as="geometry" />
        </mxCell>
        <mxCell id="kHHgpGK56QLG5do9aqDO-12" value="" style="endArrow=classic;startArrow=classic;html=1;entryX=1;entryY=0.5;entryDx=0;entryDy=0;entryPerimeter=0;" edge="1" parent="1" source="kHHgpGK56QLG5do9aqDO-11" target="kHHgpGK56QLG5do9aqDO-1">
          <mxGeometry width="50" height="50" relative="1" as="geometry">
            <mxPoint x="500" y="390" as="sourcePoint" />
            <mxPoint x="550" y="340" as="targetPoint" />
          </mxGeometry>
        </mxCell>
        <mxCell id="kHHgpGK56QLG5do9aqDO-13" value="" style="endArrow=classic;startArrow=classic;html=1;entryX=0.145;entryY=0.855;entryDx=0;entryDy=0;entryPerimeter=0;" edge="1" parent="1" source="kHHgpGK56QLG5do9aqDO-3" target="kHHgpGK56QLG5do9aqDO-1">
          <mxGeometry width="50" height="50" relative="1" as="geometry">
            <mxPoint x="500" y="390" as="sourcePoint" />
            <mxPoint x="550" y="340" as="targetPoint" />
          </mxGeometry>
        </mxCell>
      </root>
    </mxGraphModel>
  </diagram>
</mxfile>
